<svg id="Component_30_1" data-name="Component 30 – 1" xmlns="http://www.w3.org/2000/svg" width="102" height="36" viewBox="0 0 102 36">
  <g id="Type" fill="#fff" stroke="#d7dbec" stroke-miterlimit="10" stroke-width="1">
    <rect width="102" height="36" rx="4" stroke="none"/>
    <rect x="0.5" y="0.5" width="101" height="35" rx="3.5" fill="none"/>
  </g>
  <g id="Group_393" data-name="Group 393" transform="translate(-656 -21)">
    <text id="Text" transform="translate(700 44)" fill="#5a607f" font-size="14" font-family="Poppins-Regular, Poppins" letter-spacing="0.007em"><tspan x="0" y="0">Button</tspan></text>
    <g id="Icons_Navigation_icon_12_states_" data-name="Icons / Navigation icon (12 states)" transform="translate(668 27)">
      <g id="ic-file-download">
        <path id="Path_437" data-name="Path 437" d="M0,0H24V24H0Z" fill="none"/>
        <path id="Path_438" data-name="Path 438" d="M14,3V7a1,1,0,0,0,1,1h4" fill="none" stroke="#7e84a3" stroke-linecap="round" stroke-linejoin="round" stroke-width="2"/>
        <path id="Path_439" data-name="Path 439" d="M17,21H7a2,2,0,0,1-2-2V5A2,2,0,0,1,7,3h7l5,5V19A2,2,0,0,1,17,21Z" fill="none" stroke="#7e84a3" stroke-linecap="round" stroke-linejoin="round" stroke-width="2"/>
        <line id="Line_29" data-name="Line 29" y2="6" transform="translate(12 11)" fill="none" stroke="#7e84a3" stroke-linecap="round" stroke-linejoin="round" stroke-width="2"/>
        <path id="Path_440" data-name="Path 440" d="M9,14l3,3,3-3" fill="none" stroke="#7e84a3" stroke-linecap="round" stroke-linejoin="round" stroke-width="2"/>
      </g>
    </g>
  </g>
</svg>
